<?xml version="1.0" standalone="no"?>
<!DOCTYPE svg PUBLIC "-//W3C//DTD SVG 20010904//EN"
 "http://www.w3.org/TR/2001/REC-SVG-20010904/DTD/svg10.dtd">
<svg version="1.0" xmlns="http://www.w3.org/2000/svg"
 width="500.000000pt" height="500.000000pt" viewBox="0 0 500.000000 500.000000"
 preserveAspectRatio="xMidYMid meet">
<metadata>
Created by potrace 1.16, written by Peter Selinger 2001-2019
</metadata>
<g transform="translate(0.000000,500.000000) scale(0.100000,-0.100000)"
fill="#000000" stroke="none">
<path d="M3825 4540 c3 -5 2 -10 -4 -10 -5 0 -22 -5 -38 -12 -31 -13 -38 -15
-54 -17 -5 0 -7 -5 -4 -11 3 -5 1 -11 -4 -11 -6 -1 -14 -2 -18 -4 -51 -14 -62
-18 -58 -24 2 -4 -21 -15 -51 -25 -30 -9 -52 -21 -50 -25 3 -4 -15 -13 -40
-20 -24 -7 -41 -17 -38 -22 3 -5 -1 -9 -8 -9 -24 0 -98 -33 -92 -41 3 -5 -4
-9 -15 -9 -11 0 -23 -4 -26 -10 -3 -5 -15 -10 -26 -10 -11 0 -17 -4 -14 -10 3
-5 0 -10 -7 -10 -7 0 -22 -3 -33 -6 -13 -3 -30 3 -44 15 -13 12 -30 21 -37 21
-7 0 -19 6 -26 13 -7 7 -38 22 -68 33 -30 10 -57 22 -60 25 -9 10 -72 29 -99
29 -17 0 -22 3 -13 9 15 9 -163 41 -235 41 -35 0 -44 3 -33 10 10 7 -25 10
-107 10 -76 0 -123 -4 -123 -10 0 -5 -16 -10 -35 -10 -54 0 -230 -30 -233 -40
-2 -5 -28 -14 -58 -21 -30 -7 -52 -14 -49 -17 3 -3 -18 -14 -47 -24 -28 -10
-54 -22 -57 -26 -3 -5 -23 -15 -43 -21 -21 -7 -38 -16 -38 -21 0 -5 -17 -17
-37 -26 -21 -10 -42 -24 -46 -31 -4 -7 -14 -13 -22 -13 -8 0 -19 -9 -25 -20
-6 -11 -16 -20 -22 -20 -14 0 -198 -184 -198 -198 0 -5 -11 -17 -25 -26 -14
-9 -23 -21 -20 -26 3 -5 -3 -15 -12 -22 -10 -7 -25 -26 -33 -43 -8 -16 -18
-32 -21 -35 -12 -10 -39 -69 -39 -85 0 -9 -5 -13 -10 -10 -5 3 -11 1 -11 -4
-3 -27 -20 -75 -28 -81 -10 -7 -41 -108 -41 -131 0 -11 -4 -19 -9 -19 -9 0
-31 -129 -31 -185 0 -19 -4 -35 -10 -35 -6 0 -10 -47 -10 -121 0 -77 4 -118
10 -114 6 4 10 -12 10 -40 0 -58 21 -186 29 -180 4 2 15 -35 25 -81 11 -47 22
-80 26 -74 4 7 10 -3 14 -24 4 -19 12 -41 19 -48 7 -7 21 -35 31 -63 11 -27
25 -54 33 -58 7 -4 13 -14 13 -22 0 -8 6 -18 13 -22 6 -4 21 -24 31 -43 11
-19 28 -41 38 -48 10 -7 18 -17 18 -22 0 -9 130 -139 180 -180 17 -14 40 -28
51 -32 10 -4 19 -11 19 -16 0 -5 14 -15 30 -22 16 -7 30 -16 30 -20 0 -5 20
-16 45 -25 24 -10 42 -21 40 -25 -3 -4 15 -14 40 -21 24 -7 42 -15 39 -18 -6
-6 93 -39 119 -40 9 -1 17 -5 17 -10 0 -5 33 -15 74 -22 41 -7 73 -16 70 -20
-6 -10 140 -22 266 -22 126 0 272 12 266 22 -3 4 29 13 70 20 41 7 74 16 74
20 0 4 25 13 55 20 30 7 61 19 69 27 8 8 21 14 29 14 7 0 17 3 21 7 7 8 11 9
37 12 5 0 8 5 4 10 -3 5 12 15 32 22 21 6 46 20 55 30 10 9 26 20 38 24 11 3
20 10 20 15 0 5 9 11 19 15 10 3 31 18 46 33 15 15 30 27 34 27 13 0 191 192
191 206 0 4 8 14 18 21 10 7 27 32 37 56 10 23 22 42 26 42 4 0 13 16 20 35 7
19 16 35 19 35 4 0 15 26 26 58 10 31 24 63 31 70 6 7 15 32 19 57 3 25 9 43
13 40 10 -5 31 108 38 202 3 40 10 70 14 67 5 -3 9 335 9 755 0 683 -2 761
-16 761 -8 0 -12 -4 -9 -10z m-1165 -670 c3 -4 25 -11 50 -16 25 -4 47 -9 50
-10 3 0 20 -5 38 -9 17 -4 32 -11 32 -15 0 -4 18 -13 40 -20 24 -8 36 -16 29
-21 -7 -4 1 -10 20 -14 18 -4 37 -15 44 -26 6 -10 16 -19 21 -19 12 0 126
-113 126 -125 0 -6 9 -16 19 -22 11 -7 22 -26 26 -43 4 -16 10 -30 15 -30 5 0
14 -16 20 -35 6 -19 15 -33 19 -31 8 5 41 -124 41 -156 0 -10 5 -18 10 -18 6
0 10 -47 10 -121 0 -66 -4 -118 -9 -115 -4 3 -11 -17 -14 -45 -6 -49 -26 -119
-38 -129 -3 -3 -11 -21 -19 -40 -8 -19 -17 -37 -21 -40 -3 -3 -14 -21 -24 -40
-10 -19 -26 -41 -36 -48 -11 -7 -19 -17 -19 -22 0 -13 -52 -65 -80 -80 -14 -7
-31 -21 -38 -32 -7 -10 -19 -18 -26 -18 -8 0 -16 -7 -20 -15 -3 -8 -12 -15
-20 -15 -8 0 -21 -6 -29 -14 -15 -15 -98 -46 -123 -46 -8 0 -13 -4 -10 -9 8
-13 -122 -31 -225 -31 -93 0 -220 17 -229 30 -3 4 -31 15 -62 25 -32 10 -58
21 -58 25 0 5 -13 13 -30 19 -16 5 -30 15 -30 20 0 6 -6 11 -14 11 -8 0 -21 8
-28 18 -7 9 -25 25 -40 34 -36 24 -73 61 -94 98 -10 16 -21 30 -25 30 -4 0
-12 14 -19 30 -7 17 -15 30 -19 30 -4 0 -15 23 -25 50 -10 28 -21 50 -25 50
-9 0 -31 91 -31 126 0 13 -4 24 -10 24 -6 0 -10 49 -10 126 0 69 4 123 8 120
4 -2 13 25 20 62 7 36 16 69 20 72 4 3 16 31 26 63 11 33 22 53 27 46 4 -7 10
1 14 20 4 17 15 36 26 41 10 6 19 16 19 22 0 11 113 128 124 128 3 0 15 8 26
18 11 9 28 24 39 33 10 9 35 22 55 29 20 6 36 15 36 19 0 8 125 41 155 41 9 0
14 4 10 9 -11 20 272 20 285 1z"/>
<path d="M3236 1615 c-8 -19 -24 -44 -35 -57 -12 -12 -21 -26 -21 -30 0 -11
-149 -158 -180 -178 -13 -8 -31 -22 -40 -31 -9 -9 -40 -24 -68 -34 -29 -11
-52 -22 -52 -25 0 -4 -25 -13 -55 -20 -30 -7 -52 -16 -50 -20 6 -10 -155 -30
-236 -30 -83 0 -242 18 -249 29 -3 4 -33 13 -67 21 -35 7 -61 16 -58 20 2 3
-20 14 -50 24 -30 9 -55 21 -55 27 0 5 -11 14 -25 19 -14 5 -25 14 -25 20 0 5
-6 10 -12 10 -19 0 -153 116 -153 132 0 4 -10 16 -21 27 -12 11 -24 25 -26 31
-4 14 -65 -7 -90 -32 -10 -10 -25 -18 -33 -18 -8 0 -15 -5 -15 -10 0 -6 -18
-17 -40 -26 -22 -9 -40 -20 -40 -25 0 -4 -18 -14 -40 -20 -23 -7 -36 -15 -30
-19 6 -4 -8 -13 -31 -20 -23 -8 -43 -19 -46 -26 -2 -7 -15 -15 -27 -18 -12 -3
-33 -15 -46 -26 -13 -11 -29 -20 -35 -20 -28 0 -36 -26 -20 -64 8 -20 20 -36
25 -36 6 0 10 -7 10 -15 0 -8 9 -20 20 -27 11 -7 20 -18 20 -23 0 -19 154
-190 171 -190 4 0 19 -12 34 -27 15 -15 36 -30 46 -33 10 -4 19 -10 19 -15 0
-5 9 -12 20 -15 12 -4 28 -15 38 -24 9 -10 34 -24 55 -30 20 -7 35 -17 32 -22
-4 -5 -1 -10 4 -10 26 -3 30 -4 37 -11 4 -5 14 -8 21 -8 8 0 20 -6 28 -13 7
-7 38 -19 69 -27 31 -7 56 -17 56 -21 0 -4 33 -13 74 -20 41 -7 73 -16 71 -20
-6 -9 51 -16 235 -30 141 -11 369 -3 455 15 11 3 30 5 43 5 13 1 21 5 18 9 -3
5 22 14 55 21 32 6 59 15 59 20 0 4 25 14 56 21 31 8 61 19 68 25 6 6 27 17
46 25 19 8 37 16 40 20 3 3 24 14 47 25 24 11 43 23 43 28 0 4 6 7 13 7 6 0
25 11 41 25 16 14 33 25 38 25 5 0 20 12 34 28 14 15 29 27 32 27 12 0 162
153 162 165 0 6 4 9 8 6 4 -3 17 12 28 32 10 20 26 44 34 54 32 36 40 48 57
85 10 21 23 44 30 51 7 7 15 29 19 48 5 25 9 32 15 22 6 -9 9 -7 9 10 0 16 -6
22 -21 22 -11 0 -18 3 -15 8 2 4 -23 16 -57 27 -34 11 -68 25 -75 32 -7 7 -28
15 -47 19 -19 3 -35 9 -35 13 0 4 -26 16 -57 27 -32 10 -63 24 -70 30 -7 7
-28 15 -48 18 -19 4 -35 11 -35 15 0 10 -54 31 -76 31 -8 0 -20 -16 -28 -35z"/>
</g>
</svg>
